<?xml version="1.0" encoding="UTF-8"?>
<!DOCTYPE svg PUBLIC "-//W3C//DTD SVG 1.1//EN" "http://www.w3.org/Graphics/SVG/1.1/DTD/svg11.dtd">
<svg version="1.2" width="210mm" height="210mm" viewBox="0 0 21000 21000" preserveAspectRatio="xMidYMid" fill-rule="evenodd" stroke-width="28.222" stroke-linejoin="round" xmlns="http://www.w3.org/2000/svg" xmlns:ooo="http://xml.openoffice.org/svg/export" xmlns:xlink="http://www.w3.org/1999/xlink" xmlns:presentation="http://sun.com/xmlns/staroffice/presentation" xmlns:smil="http://www.w3.org/2001/SMIL20/" xmlns:anim="urn:oasis:names:tc:opendocument:xmlns:animation:1.0" xml:space="preserve">
 <defs class="ClipPathGroup">
  <clipPath id="presentation_clip_path" clipPathUnits="userSpaceOnUse">
   <rect x="0" y="0" width="21000" height="21000"/>
  </clipPath>
  <clipPath id="presentation_clip_path_shrink" clipPathUnits="userSpaceOnUse">
   <rect x="21" y="21" width="20958" height="20958"/>
  </clipPath>
 </defs>
 <defs class="TextShapeIndex">
  <g ooo:slide="id1" ooo:id-list="id3 id4"/>
 </defs>
 <defs class="EmbeddedBulletChars">
  <g id="bullet-char-template-57356" transform="scale(0.00048828125,-0.00048828125)">
   <path d="M 580,1141 L 1163,571 580,0 -4,571 580,1141 Z"/>
  </g>
  <g id="bullet-char-template-57354" transform="scale(0.00048828125,-0.00048828125)">
   <path d="M 8,1128 L 1137,1128 1137,0 8,0 8,1128 Z"/>
  </g>
  <g id="bullet-char-template-10146" transform="scale(0.00048828125,-0.00048828125)">
   <path d="M 174,0 L 602,739 174,1481 1456,739 174,0 Z M 1358,739 L 309,1346 659,739 1358,739 Z"/>
  </g>
  <g id="bullet-char-template-10132" transform="scale(0.00048828125,-0.00048828125)">
   <path d="M 2015,739 L 1276,0 717,0 1260,543 174,543 174,936 1260,936 717,1481 1274,1481 2015,739 Z"/>
  </g>
  <g id="bullet-char-template-10007" transform="scale(0.00048828125,-0.00048828125)">
   <path d="M 0,-2 C -7,14 -16,27 -25,37 L 356,567 C 262,823 215,952 215,954 215,979 228,992 255,992 264,992 276,990 289,987 310,991 331,999 354,1012 L 381,999 492,748 772,1049 836,1024 860,1049 C 881,1039 901,1025 922,1006 886,937 835,863 770,784 769,783 710,716 594,584 L 774,223 C 774,196 753,168 711,139 L 727,119 C 717,90 699,76 672,76 641,76 570,178 457,381 L 164,-76 C 142,-110 111,-127 72,-127 30,-127 9,-110 8,-76 1,-67 -2,-52 -2,-32 -2,-23 -1,-13 0,-2 Z"/>
  </g>
  <g id="bullet-char-template-10004" transform="scale(0.00048828125,-0.00048828125)">
   <path d="M 285,-33 C 182,-33 111,30 74,156 52,228 41,333 41,471 41,549 55,616 82,672 116,743 169,778 240,778 293,778 328,747 346,684 L 369,508 C 377,444 397,411 428,410 L 1163,1116 C 1174,1127 1196,1133 1229,1133 1271,1133 1292,1118 1292,1087 L 1292,965 C 1292,929 1282,901 1262,881 L 442,47 C 390,-6 338,-33 285,-33 Z"/>
  </g>
  <g id="bullet-char-template-9679" transform="scale(0.00048828125,-0.00048828125)">
   <path d="M 813,0 C 632,0 489,54 383,161 276,268 223,411 223,592 223,773 276,916 383,1023 489,1130 632,1184 813,1184 992,1184 1136,1130 1245,1023 1353,916 1407,772 1407,592 1407,412 1353,268 1245,161 1136,54 992,0 813,0 Z"/>
  </g>
  <g id="bullet-char-template-8226" transform="scale(0.00048828125,-0.00048828125)">
   <path d="M 346,457 C 273,457 209,483 155,535 101,586 74,649 74,723 74,796 101,859 155,911 209,963 273,989 346,989 419,989 480,963 531,910 582,859 608,796 608,723 608,648 583,586 532,535 482,483 420,457 346,457 Z"/>
  </g>
  <g id="bullet-char-template-8211" transform="scale(0.00048828125,-0.00048828125)">
   <path d="M -4,459 L 1135,459 1135,606 -4,606 -4,459 Z"/>
  </g>
  <g id="bullet-char-template-61548" transform="scale(0.00048828125,-0.00048828125)">
   <path d="M 173,740 C 173,903 231,1043 346,1159 462,1274 601,1332 765,1332 928,1332 1067,1274 1183,1159 1299,1043 1357,903 1357,740 1357,577 1299,437 1183,322 1067,206 928,148 765,148 601,148 462,206 346,322 231,437 173,577 173,740 Z"/>
  </g>
 </defs>
 <defs class="TextEmbeddedBitmaps"/>
 <g>
  <g id="id2" class="Master_Slide">
   <g id="bg-id2" class="Background"/>
   <g id="bo-id2" class="BackgroundObjects"/>
  </g>
 </g>
 <g class="SlideGroup">
  <g>
   <g id="container-id1">
    <g id="id1" class="Slide" clip-path="url(#presentation_clip_path)">
     <g class="Page">
      <g class="Group">
       <g class="com.sun.star.drawing.ClosedBezierShape">
        <g id="id3">
         <rect class="BoundingBox" stroke="none" fill="none" x="2024" y="2024" width="16954" height="16954"/>
         <path fill="#ffffff" stroke="none" d="M 10501,2024 L 10500,2024 C 12061,2024 13387,2379 14739,3160 16090,3940 17061,4911 17841,6262 18622,7614 18977,8940 18977,10500 L 18977,10501 18977,10501 C 18977,12061 18622,13387 17841,14739 17061,16090 16090,17061 14739,17841 13387,18622 12061,18977 10501,18977 8940,18977 7614,18622 6262,17841 4911,17061 3940,16090 3160,14739 2379,13387 2024,12061 2024,10501 2024,8940 2379,7614 3160,6262 3940,4911 4911,3940 6262,3160 7614,2379 8940,2024 10500,2024 L 10501,2024 Z"/>
        </g>
       </g>
       <g class="com.sun.star.drawing.ClosedBezierShape">
        <g id="id4">
         <rect class="BoundingBox" stroke="none" fill="none" x="2743" y="7666" width="14161" height="6557"/>
         <path fill="#274688" stroke="none" d="M 10140,7752 L 9773,7752 9421,7752 C 9303,7738 9160,7738 9016,7725 8977,7738 8964,7778 8951,7830 8938,7882 8951,7922 8977,7961 L 9134,7974 C 9329,8012 9473,8052 9565,8091 9656,8143 9721,8235 9747,8352 9773,8470 9786,8626 9773,8822 9760,9096 9747,9423 9734,9801 9721,10180 9695,10572 9669,10978 9643,11604 9587,13129 9416,13581 9377,13685 9312,13751 9233,13790 9142,13829 9037,13868 8907,13882 L 8697,13908 C 8658,13934 8645,13973 8658,14039 8658,14078 8671,14117 8710,14156 8880,14143 9037,14130 9207,14117 L 9704,14117 10241,14117 C 10437,14130 10607,14143 10764,14156 10804,14130 10830,14091 10830,14039 10830,13986 10817,13947 10777,13908 L 10411,13882 C 10293,13868 10202,13842 10137,13790 10104,13764 10077,13728 10058,13683 9981,13498 9979,13183 9983,12988 9991,12584 9996,12179 10009,11774 10022,11369 10035,11017 10048,10715 10061,10441 10088,10154 10100,9867 10114,9580 10126,9292 10140,9005 L 10166,9005 C 10270,9227 10375,9449 10466,9697 10571,9932 10675,10167 10779,10389 L 11654,12257 C 11733,12414 11824,12610 11928,12845 12046,13093 12163,13328 12268,13563 12323,13687 12371,13804 12412,13913 12422,13913 12495,14154 12503,14182 12554,14233 12636,14232 12687,14182 12768,13987 12853,13791 12947,13602 13194,13047 13452,12517 13744,11983 L 14592,10298 C 14658,10154 14723,9997 14814,9828 14906,9645 14997,9475 15075,9332 15141,9175 15193,9070 15219,9031 L 15232,9031 15258,13067 C 15271,13276 15258,13432 15245,13549 15235,13643 15208,13732 15119,13777 15066,13842 14962,13868 14792,13882 L 14504,13908 C 14478,13934 14465,13973 14478,14039 14478,14078 14491,14117 14530,14156 14726,14143 14935,14130 15131,14117 L 15707,14117 16256,14117 C 16452,14130 16648,14143 16845,14156 16884,14130 16897,14091 16897,14039 16910,13986 16897,13947 16871,13908 L 16557,13882 C 16413,13868 16309,13829 16243,13764 16178,13699 16126,13620 16112,13515 16099,13398 16086,13254 16086,13097 16059,12611 16041,12118 16029,11631 16015,11108 15989,10611 15976,10142 L 15976,8901 C 15976,8679 15989,8509 16015,8378 16042,8261 16107,8157 16198,8091 16290,8039 16446,8000 16655,7974 L 16851,7961 C 16877,7934 16890,7895 16877,7830 16877,7791 16864,7752 16838,7725 16681,7738 16525,7738 16381,7752 L 15976,7752 15676,7752 C 15558,7738 15428,7738 15258,7725 15245,7947 15167,8196 15049,8483 14906,8783 14736,9149 14527,9580 L 13613,11421 C 13376,11923 13160,12400 12870,12875 L 12843,12875 C 12612,12439 12399,11986 12190,11539 L 11080,9318 C 10937,9005 10806,8705 10701,8431 10610,8157 10571,7922 10584,7725 10427,7738 10283,7738 10140,7752 Z M 10140,7752 L 10140,7752 Z M 4781,12716 C 4781,13049 4768,13302 4741,13475 4715,13811 4494,13921 4181,13942 L 3981,13969 C 3917,14033 3922,14173 3995,14222 4408,14196 4781,14182 5195,14182 5636,14182 6047,14201 6487,14222 6514,14195 6528,14155 6541,14102 6541,14036 6528,13995 6501,13969 L 6234,13942 C 6021,13928 5874,13888 5795,13822 5790,13818 5785,13815 5780,13811 5700,13744 5642,13642 5618,13483 5591,13310 5578,13057 5591,12725 L 5591,11793 C 5298,11806 5032,11793 4792,11753 L 4781,12716 Z M 4781,12716 L 4781,12716 Z M 3927,7852 C 3914,7905 3941,7945 3981,7985 L 4327,8025 C 4473,8038 4580,8078 4646,8145 4712,8198 4753,8291 4766,8438 4779,8584 4792,8797 4792,9076 L 4792,11047 C 5059,11061 5325,11061 5591,11047 L 5591,8331 C 5578,8225 5591,8145 5618,8078 5631,8038 5684,7998 5751,7985 5830,7972 5964,7972 6137,7972 6643,7985 7029,8118 7308,8398 7574,8677 7707,9063 7707,9543 7721,9968 7614,10328 7388,10620 7188,10874 6896,11061 6496,11154 6110,11247 5565,11287 4832,11274 4193,11261 3501,11221 2743,11141 3581,11314 4207,11434 4606,11473 5258,11554 5897,11540 6496,11447 6802,11407 7082,11327 7335,11234 7574,11128 7814,10981 8067,10807 8213,10701 8346,10527 8466,10301 8560,10088 8613,9835 8626,9529 8613,9196 8533,8904 8387,8651 8240,8398 8067,8198 7841,8052 7614,7919 7335,7812 7015,7745 6709,7692 6350,7666 5937,7666 5538,7666 5178,7666 4859,7679 4540,7692 4247,7705 3993,7732 3954,7759 3927,7799 3927,7852 Z"/>
        </g>
       </g>
      </g>
     </g>
    </g>
   </g>
  </g>
 </g>
</svg>